<svg xmlns="http://www.w3.org/2000/svg" width="520" height="170"><g transform="translate(30,20)" font-family="Verdana,Geneva,sans-serif" font-size="10"><g class="x axis" transform="translate(0,130)"><g class="tick" style="opacity: 1; " transform="translate(42.5,0)"><line y2="6" x2="0"></line><text y="9" x="0" dy=".71em" style="text-anchor: middle; ">4 weeks ago</text></g><g class="tick" style="opacity: 1; " transform="translate(116.5,0)"><line y2="6" x2="0"></line><text y="9" x="0" dy=".71em" style="text-anchor: middle; ">3 weeks ago</text></g><g class="tick" style="opacity: 1; " transform="translate(190.5,0)"><line y2="6" x2="0"></line><text y="9" x="0" dy=".71em" style="text-anchor: middle; ">2 weeks ago</text></g><g class="tick" style="opacity: 1; " transform="translate(264.5,0)"><line y2="6" x2="0"></line><text y="9" x="0" dy=".71em" style="text-anchor: middle; ">Last week</text></g><g class="tick" style="opacity: 1; " transform="translate(338.5,0)"><line y2="6" x2="0"></line><text y="9" x="0" dy=".71em" style="text-anchor: middle; ">This week</text></g><path class="domain" d="M0,6V0H380V6" fill="none" stroke="#999"></path></g><g class="y axis"><g class="tick" style="opacity: 1; " transform="translate(0,130)"><line x2="-6" y2="0"></line><text x="-9" y="0" dy=".32em" style="text-anchor: end; ">0</text></g><g class="tick" style="opacity: 1; " transform="translate(0,65)"><line x2="-6" y2="0"></line><text x="-9" y="0" dy=".32em" style="text-anchor: end; ">64</text></g><g class="tick" style="opacity: 1; " transform="translate(0,0)"><line x2="-6" y2="0"></line><text x="-9" y="0" dy=".32em" style="text-anchor: end; ">128</text></g><path class="domain" d="M-6,0H0V130H-6" fill="none" stroke="#999"></path></g><g class="bar" transform="translate(9,0)"><rect class="bar" width="67" y="100.546875" height="29.453125" style="fill: #1272ba; "></rect><rect class="bar" width="67" y="71.09375" height="29.453125" style="fill: #77bcf7; "></rect><text y="66.09375" x="33.5" style="text-anchor: middle; font-family: sans-serif; ">58</text></g><g class="bar" transform="translate(83,0)"><rect class="bar" width="67" y="52.8125" height="77.1875" style="fill: #1272ba; "></rect><rect class="bar" width="67" y="3.046875" height="49.765625" style="fill: #77bcf7; "></rect><text y="-1.953125" x="33.5" style="text-anchor: middle; font-family: sans-serif; ">125</text></g><g class="bar" transform="translate(157,0)"><rect class="bar" width="67" y="40.625" height="89.375" style="fill: #1272ba; "></rect><rect class="bar" width="67" y="0" height="40.625" style="fill: #77bcf7; "></rect><text y="-5" x="33.5" style="text-anchor: middle; font-family: sans-serif; ">128</text></g><g class="bar" transform="translate(231,0)"><rect class="bar" width="67" y="66.015625" height="63.984375" style="fill: #1272ba; "></rect><rect class="bar" width="67" y="14.21875" height="51.796875" style="fill: #77bcf7; "></rect><text y="9.21875" x="33.5" style="text-anchor: middle; font-family: sans-serif; ">114</text></g><g class="bar" transform="translate(305,0)"><rect class="bar" width="67" y="124.921875" height="5.078125" style="fill: #1272ba; "></rect><rect class="bar" width="67" y="124.921875" height="0" style="fill: #77bcf7; "></rect><text y="119.921875" x="33.5" style="text-anchor: middle; font-family: sans-serif; ">5</text></g><g class="legend" transform="translate(3,0)"><rect x="465" width="18" height="18" style="fill: #77bcf7; "></rect><text x="449" y="9" dy=".35em" style="text-anchor: end; ">Closed PRs</text></g><g class="legend" transform="translate(3,20)"><rect x="465" width="18" height="18" style="fill: #1272ba; "></rect><text x="449" y="9" dy=".35em" style="text-anchor: end; ">Closed Issues</text></g></g></svg>
